<svg width="50" height="63" viewBox="0 0 50 63" fill="none" xmlns="http://www.w3.org/2000/svg">
<path d="M5.65625 0C2.59375 0.28125 0 3.125 0 6.25V56.25C0 59.5312 2.96875 62.5 6.25 62.5H43.75C47.0312 62.5 50 59.5312 50 56.25V6.25C50 4.5924 49.3415 3.00268 48.1694 1.83058C46.9973 0.65848 45.4076 0 43.75 0H25V21.875L17.1875 17.1875L9.375 21.875V0H6.25H5.65625ZM25 34.375H28.125C28.9538 34.375 29.7487 34.7042 30.3347 35.2903C30.9208 35.8763 31.25 36.6712 31.25 37.5V50H28.125V43.75H25V50H21.875V37.5C21.875 36.6712 22.2042 35.8763 22.7903 35.2903C23.3763 34.7042 24.1712 34.375 25 34.375ZM25 37.5V40.625H28.125V37.5H25ZM34.375 40.625H43.75V43.75L37.5 53.125H43.75V56.25H34.375V53.125L40.625 43.75H34.375V40.625Z" fill="#D99BFF"/>
</svg>
