<svg width="28" height="28" viewBox="0 0 28 28" fill="none" xmlns="http://www.w3.org/2000/svg">
<g id="mingcute:close-fill" clip-path="url(#clip0_142_1301)">
<g id="Group">
<path id="Vector" fill-rule="evenodd" clip-rule="evenodd" d="M14 16.4757L20.1868 22.6625C20.5151 22.9908 20.9604 23.1752 21.4247 23.1752C21.8889 23.1752 22.3342 22.9908 22.6625 22.6625C22.9908 22.3342 23.1752 21.889 23.1752 21.4247C23.1752 20.9604 22.9908 20.5151 22.6625 20.1868L16.4733 14L22.6613 7.81317C22.8238 7.65062 22.9527 7.45765 23.0406 7.24529C23.1285 7.03294 23.1737 6.80534 23.1736 6.57551C23.1736 6.34568 23.1283 6.11811 23.0403 5.90579C22.9523 5.69347 22.8233 5.50057 22.6607 5.33809C22.4982 5.17561 22.3052 5.04674 22.0929 4.95884C21.8805 4.87094 21.6529 4.82572 21.4231 4.82577C21.1932 4.82583 20.9657 4.87115 20.7534 4.95915C20.541 5.04716 20.3481 5.17612 20.1857 5.33867L14 11.5255L7.81315 5.33867C7.6518 5.17146 7.45876 5.03805 7.2453 4.94623C7.03183 4.85442 6.80222 4.80603 6.56986 4.80391C6.3375 4.80178 6.10704 4.84595 5.89193 4.93384C5.67682 5.02173 5.48137 5.15158 5.31698 5.31581C5.15259 5.48005 5.02256 5.67538 4.93446 5.8904C4.84637 6.10543 4.80198 6.33585 4.80389 6.56821C4.8058 6.80057 4.85397 7.03023 4.94558 7.24378C5.03719 7.45733 5.17042 7.6505 5.33749 7.81201L11.5267 14L5.33865 20.188C5.17159 20.3495 5.03836 20.5427 4.94675 20.7562C4.85513 20.9698 4.80697 21.1994 4.80506 21.4318C4.80315 21.6642 4.84754 21.8946 4.93563 22.1096C5.02372 22.3246 5.15376 22.52 5.31815 22.6842C5.48254 22.8484 5.67799 22.9783 5.8931 23.0662C6.1082 23.1541 6.33866 23.1982 6.57103 23.1961C6.80339 23.194 7.033 23.1456 7.24646 23.0538C7.45992 22.962 7.65297 22.8286 7.81432 22.6613L14 16.4757Z" fill="#E1E0E6"/>
</g>
</g>
<defs>
<clipPath id="clip0_142_1301">
<rect width="28" height="28" fill="white"/>
</clipPath>
</defs>
</svg>
