<svg width="75" height="66" viewBox="0 0 75 66" fill="none" xmlns="http://www.w3.org/2000/svg">
<path d="M53.9326 16.2791L75 26.7442V55.1599L53.9326 65.625L32.8285 55.2326V43.5683L21.1041 49.3459L0 38.9535L0.036639 10.4651L21.1041 0L42.1715 10.4651L42.2081 22.1294L53.9326 16.2791ZM67.4157 28.1613L53.9326 21.5116L40.4494 28.1613L53.9326 34.8474L67.4157 28.1613ZM34.5872 11.8823L21.1041 5.23256L7.62091 11.8823L21.1041 18.5683L34.5872 11.8823ZM4.72643 15.6613L4.68979 36.0465L18.7592 42.9869V22.6017L4.72643 15.6613ZM23.4489 42.9869L32.8652 38.3721V26.7442L37.5183 24.4549L37.4817 15.6613L23.4489 22.6017V42.9869ZM37.555 31.9404L37.5183 52.3256L51.5877 59.266V38.8808L37.555 31.9404ZM56.2775 59.266L70.3102 52.2892V31.9404L56.2775 38.8808V59.266Z" fill="#FFD233"/>
</svg>
