<svg width="81" height="81" viewBox="0 0 81 81" fill="none" xmlns="http://www.w3.org/2000/svg">
<path d="M23.625 6.75H16.875V16.875H6.75V23.625H16.875V33.75H23.625V23.625H33.75V16.875H23.625V6.75ZM47.25 16.875H74.25V23.625H47.25V16.875ZM47.25 50.625H74.25V57.375H47.25V50.625ZM47.25 64.125H74.25V70.875H47.25V64.125ZM27.9788 48.2287L20.25 55.9912L12.5213 48.2287L7.72875 53.0213L15.4913 60.75L7.72875 68.4788L12.5213 73.2712L20.25 65.5088L27.9788 73.2712L32.7712 68.4788L25.0087 60.75L32.7712 53.0213L27.9788 48.2287Z" fill="#F24E1E"/>
</svg>
