<?xml version="1.0" encoding="UTF-8"?>
<!DOCTYPE svg PUBLIC "-//W3C//DTD SVG 1.1//EN" "http://www.w3.org/Graphics/SVG/1.1/DTD/svg11.dtd">
<svg xmlns="http://www.w3.org/2000/svg" version="1.1" width="40px" height="40px" style="shape-rendering:geometricPrecision; text-rendering:geometricPrecision; image-rendering:optimizeQuality; fill-rule:evenodd; clip-rule:evenodd" xmlns:xlink="http://www.w3.org/1999/xlink">
<g><path style="opacity:0.727" fill="#fefffe" d="M 18.5,2.5 C 28.79,7.06975 32.6234,15.0698 30,26.5C 31.8921,27.6174 32.7254,29.2841 32.5,31.5C 29.5,31.5 26.5,31.5 23.5,31.5C 22.6615,36.6677 20.1615,37.6677 16,34.5C 15.5172,33.552 15.3505,32.552 15.5,31.5C 12.5,31.5 9.5,31.5 6.5,31.5C 6.27459,29.2841 7.10793,27.6174 9,26.5C 9.33333,21.5 9.66667,16.5 10,11.5C 12.5732,8.15703 15.4065,5.15703 18.5,2.5 Z M 17.5,8.5 C 21.4326,8.41132 24.2659,10.078 26,13.5C 26.4992,18.1548 26.6658,22.8215 26.5,27.5C 21.8333,27.5 17.1667,27.5 12.5,27.5C 12.3342,22.8215 12.5008,18.1548 13,13.5C 14.025,11.313 15.525,9.64638 17.5,8.5 Z"/></g>
</svg>
