<svg width="33" height="25" viewBox="0 0 33 25" fill="none" xmlns="http://www.w3.org/2000/svg">
<path d="M11.7454 24.6296C11.2533 24.6296 10.8322 24.4534 10.4822 24.1011C10.1311 23.7511 9.95549 23.3295 9.95549 22.8361V19.2528H14.9166V13.4299C13.7795 13.6688 12.6143 13.633 11.4211 13.3224C10.2278 13.0118 9.24301 12.4642 8.46662 11.6794V9.15856H5.92245L0.929077 4.16161C1.95869 3.22516 3.12686 2.52462 4.43358 2.05998C5.7403 1.59654 7.08524 1.36481 8.46841 1.36481C9.61627 1.36481 10.7331 1.52786 11.8188 1.85394C12.9022 2.18002 13.9354 2.69065 14.9184 3.38581V0.0963135H32.8351V21.0445C32.8351 22.055 32.4905 22.9048 31.8013 23.594C31.1121 24.2832 30.2622 24.6278 29.2517 24.6278L11.7454 24.6296ZM16.7083 19.2546H27.4583V21.0463C27.4583 21.5527 27.6303 21.9779 27.9743 22.3219C28.3183 22.6659 28.7435 22.8373 29.25 22.8361C29.7576 22.8361 30.1834 22.6647 30.5274 22.3219C30.8714 21.9791 31.0428 21.5533 31.0416 21.0445V1.88798H16.7083V4.75465L26.5625 14.6088V15.8773H25.294L19.8437 10.4253L18.8314 11.4394C18.4814 11.7881 18.1386 12.0808 17.803 12.3173C17.4662 12.5538 17.1013 12.7616 16.7083 12.9408V19.2546ZM6.68929 7.3651H10.2583V10.8714C10.8698 11.2488 11.4384 11.5056 11.964 11.6418C12.4895 11.7768 13.0007 11.8443 13.4976 11.8443C14.3122 11.8443 15.0534 11.7051 15.7211 11.4268C16.3888 11.1485 17.0141 10.7179 17.597 10.135L18.5752 9.15677L15.447 6.02673C14.489 5.06998 13.4152 4.35212 12.2255 3.87315C11.0359 3.39417 9.7829 3.15469 8.46662 3.15469C7.59467 3.15469 6.74602 3.26816 5.92066 3.4951C5.09649 3.72205 4.35773 4.01708 3.70437 4.38019L6.68929 7.3651ZM25.6666 21.0445H11.7454V22.8361H26.2113C26.007 22.5901 25.8649 22.3142 25.7849 22.0084C25.706 21.7026 25.6666 21.3819 25.6666 21.0463" fill="#F8F8F8"/>
</svg>
