<svg width="29" height="29" viewBox="0 0 29 29" fill="none" xmlns="http://www.w3.org/2000/svg">
<path fill-rule="evenodd" clip-rule="evenodd" d="M18.6534 15.0386C18.4135 14.4103 17.9691 13.8662 17.3815 13.4815C16.7939 13.0967 16.0919 12.89 15.3723 12.89V12.0844H13.6325V12.89C12.7097 12.89 11.8247 13.2295 11.1722 13.8339C10.5197 14.4382 10.1531 15.2579 10.1531 16.1125C10.1531 16.9672 10.5197 17.7868 11.1722 18.3912C11.8247 18.9955 12.7097 19.335 13.6325 19.335V22.5575C12.8758 22.5575 12.2312 22.1104 11.9911 21.4836C11.9555 21.3811 11.898 21.2862 11.8221 21.2046C11.7462 21.1229 11.6534 21.0563 11.5492 21.0084C11.445 20.9606 11.3314 20.9326 11.2153 20.9262C11.0992 20.9197 10.9829 20.9348 10.8733 20.9707C10.7636 21.0066 10.6628 21.0625 10.5769 21.1351C10.4909 21.2077 10.4216 21.2955 10.3729 21.3933C10.3243 21.4912 10.2973 21.5971 10.2936 21.7047C10.2899 21.8124 10.3096 21.9196 10.3514 22.0202C10.5913 22.6485 11.0357 23.1925 11.6233 23.5773C12.2109 23.9621 12.9129 24.1687 13.6325 24.1688V24.9744H15.3723V24.1688C16.2951 24.1688 17.1801 23.8292 17.8326 23.2249C18.4851 22.6206 18.8517 21.8009 18.8517 20.9463C18.8517 20.0916 18.4851 19.272 17.8326 18.6676C17.1801 18.0633 16.2951 17.7238 15.3723 17.7238V14.5013C15.7321 14.5012 16.083 14.6044 16.3768 14.7967C16.6706 14.9891 16.8928 15.261 17.0128 15.5752C17.0897 15.7767 17.2498 15.9416 17.4579 16.0338C17.561 16.0794 17.6727 16.1058 17.7868 16.1114C17.9009 16.1171 18.0151 16.1018 18.1228 16.0666C18.2305 16.0314 18.3297 15.9768 18.4146 15.9061C18.4996 15.8354 18.5687 15.7499 18.618 15.6544C18.6672 15.5589 18.6957 15.4554 18.7018 15.3498C18.7079 15.2441 18.6914 15.1384 18.6534 15.0386ZM13.6325 14.5013C13.1711 14.5013 12.7286 14.671 12.4024 14.9732C12.0761 15.2754 11.8928 15.6852 11.8928 16.1125C11.8928 16.5399 12.0761 16.9497 12.4024 17.2518C12.7286 17.554 13.1711 17.7238 13.6325 17.7238V14.5013ZM15.3723 22.5575C15.8337 22.5575 16.2762 22.3878 16.6024 22.0856C16.9287 21.7834 17.112 21.3736 17.112 20.9463C17.112 20.5189 16.9287 20.1091 16.6024 19.8069C16.2762 19.5048 15.8337 19.335 15.3723 19.335V22.5575Z" fill="white"/>
<path fill-rule="evenodd" clip-rule="evenodd" d="M5.06684 2.11154C7.20149 1.14398 10.7036 0 14.5362 0C18.2888 0 21.6987 1.09645 23.822 2.05111L23.942 2.10509C24.5823 2.39834 25.099 2.67547 25.4626 2.90024L22.2493 7.2506C29.657 14.2644 35.379 29 14.5362 29C-6.30665 29 -0.738641 14.5318 6.7335 7.2506L3.54109 2.90024C3.78727 2.7512 4.09955 2.57799 4.47185 2.39431C4.65626 2.30247 4.85459 2.20741 5.06684 2.11154ZM20.1842 7.1934L22.7564 3.7107C20.3643 3.87021 17.5181 4.39064 14.778 5.12537C12.8208 5.64903 10.6462 5.56927 8.63241 5.22527C8.12496 5.13814 7.62099 5.03442 7.12146 4.9143L8.7916 7.19179C12.3711 8.37203 16.6039 8.37203 20.1842 7.1934ZM7.7869 8.56377C11.9753 10.0622 17.0092 10.0622 21.1976 8.56216C22.9459 10.269 24.4084 12.2087 25.5365 14.3167C26.7126 16.5386 27.3528 18.7597 27.2484 20.6739C27.1475 22.5212 26.3629 24.0994 24.5709 25.2724C22.7033 26.4945 19.5623 27.3888 14.5353 27.3888C9.50315 27.3888 6.34728 26.5098 4.46228 25.3014C2.65731 24.1437 1.86486 22.5864 1.75265 20.7641C1.63522 18.8709 2.26152 16.6611 3.43323 14.4239C4.55101 12.2906 6.11067 10.237 7.7869 8.56377ZM6.78656 3.15482C7.48245 3.34656 8.20966 3.51332 8.9473 3.6398C10.8175 3.95883 12.6929 4.00556 14.2935 3.57616C16.1587 3.07292 18.0557 2.67714 19.9737 2.39109C18.3732 1.94477 16.5012 1.61125 14.5353 1.61125C11.5386 1.61125 8.74376 2.38545 6.78656 3.15482Z" fill="white"/>
</svg>
