<svg width="30" height="30" viewBox="0 0 30 30" fill="none" xmlns="http://www.w3.org/2000/svg">
<path d="M14.5155 4.635C14.25 4.5825 13.929 4.575 13.461 4.6425C13.1262 4.68534 12.8042 4.79833 12.516 4.97409C12.2278 5.14985 11.9799 5.38442 11.7885 5.6625C11.4045 6.2085 11.1705 6.957 11.0985 7.833C11.0955 8.118 11.046 9.138 10.9725 10.5H14.25C14.449 10.5 14.6397 10.579 14.7804 10.7197C14.921 10.8603 15 11.0511 15 11.25C15 11.4489 14.921 11.6397 14.7804 11.7803C14.6397 11.921 14.449 12 14.25 12H10.89C10.701 15.375 10.44 19.7175 10.3485 20.907V20.9115L10.3395 21.0165C10.2675 21.8745 10.1835 22.8945 9.88354 23.835C9.56404 24.8355 8.98354 25.8 7.88854 26.442C6.35404 27.3945 4.69054 26.9595 3.41404 26.322C3.23601 26.2329 3.10068 26.0767 3.03781 25.8878C2.97493 25.6989 2.98968 25.4928 3.07879 25.3147C3.1679 25.1367 3.32408 25.0014 3.51298 24.9385C3.70188 24.8756 3.90801 24.8904 4.08604 24.9795C5.20654 25.5405 6.24004 25.704 7.10254 25.164L7.12204 25.152C7.81954 24.747 8.21254 24.1365 8.45404 23.3775C8.70154 22.6035 8.77354 21.7335 8.85004 20.8245L8.85304 20.793V20.79C8.94304 19.6005 9.19954 15.33 9.38704 12H6.75004C6.55113 12 6.36036 11.921 6.21971 11.7803C6.07906 11.6397 6.00004 11.4489 6.00004 11.25C6.00004 11.0511 6.07906 10.8603 6.21971 10.7197C6.36036 10.579 6.55113 10.5 6.75004 10.5H9.46954C9.52517 9.58157 9.56967 8.66251 9.60304 7.743C9.68404 6.678 9.97354 5.6355 10.5615 4.8C11.1615 3.945 12.0525 3.3405 13.236 3.159L13.2435 3.1575C13.8225 3.075 14.3265 3.0675 14.8095 3.165C15.2955 3.2625 15.7155 3.4545 16.1355 3.7065C16.3062 3.80874 16.4293 3.97459 16.4777 4.16757C16.526 4.36054 16.4958 4.56483 16.3935 4.7355C16.2913 4.90617 16.1254 5.02923 15.9325 5.07761C15.7395 5.126 15.5352 5.09574 15.3645 4.9935C15.105 4.8247 14.8175 4.70332 14.5155 4.635ZM25.281 13.719C25.3509 13.7887 25.4063 13.8714 25.4441 13.9626C25.4819 14.0537 25.5014 14.1513 25.5014 14.25C25.5014 14.3487 25.4819 14.4463 25.4441 14.5374C25.4063 14.6286 25.3509 14.7113 25.281 14.781L20.451 19.611C21.1373 20.8501 21.8343 22.0831 22.542 23.31L22.6035 23.418C22.701 23.5905 22.77 23.703 22.8345 23.793C22.9245 23.919 23.01 24.009 23.2005 24.114C23.5245 24.1695 23.6205 24.102 23.6595 24.0765C23.7307 24.0221 23.7938 23.958 23.847 23.886C23.9039 23.8149 23.9589 23.7424 24.012 23.6685C24.0495 23.6145 24.0945 23.553 24.15 23.4795C24.2091 23.4007 24.2832 23.3343 24.3679 23.2841C24.4527 23.234 24.5465 23.201 24.644 23.187C24.7415 23.1731 24.8408 23.1785 24.9362 23.203C25.0316 23.2274 25.1212 23.2704 25.2 23.3295C25.2788 23.3886 25.3452 23.4626 25.3954 23.5474C25.4456 23.6321 25.4786 23.7259 25.4925 23.8234C25.5064 23.9209 25.501 24.0202 25.4766 24.1156C25.4521 24.211 25.4091 24.3007 25.35 24.3795L25.2645 24.4965C25.095 24.732 24.8445 25.0815 24.5145 25.308C24.0405 25.638 23.4765 25.71 22.7925 25.563C22.7301 25.5498 22.6696 25.5287 22.6125 25.5C22.2125 25.3139 21.8681 25.0264 21.6135 24.666C21.5012 24.5033 21.3971 24.3351 21.3015 24.162L21.234 24.0435C20.595 22.9395 19.9665 21.8295 19.3485 20.7135L14.781 25.281C14.6404 25.4218 14.4496 25.501 14.2506 25.5012C14.0515 25.5013 13.8606 25.4224 13.7198 25.2817C13.579 25.1411 13.4998 24.9503 13.4996 24.7513C13.4995 24.5523 13.5784 24.3613 13.719 24.2205L18.588 19.3515C18.0259 18.3351 17.4559 17.3231 16.878 16.3155C16.739 16.0272 16.5748 15.7516 16.3875 15.492C16.2563 15.3017 16.0879 15.14 15.8925 15.0165C15.801 14.9865 15.717 14.9955 15.585 15.078C15.405 15.189 15.2115 15.3975 15 15.6795C14.9409 15.7583 14.8669 15.8247 14.7822 15.8749C14.6974 15.925 14.6036 15.958 14.5061 15.972C14.4086 15.9859 14.3093 15.9805 14.2139 15.956C14.1185 15.9316 14.0288 15.8886 13.95 15.8295C13.8712 15.7704 13.8049 15.6964 13.7547 15.6116C13.7045 15.5269 13.6715 15.4331 13.6576 15.3356C13.6436 15.2381 13.6491 15.1388 13.6735 15.0434C13.6979 14.948 13.7409 14.8583 13.8 14.7795C14.037 14.463 14.367 14.07 14.79 13.806C15.243 13.5225 15.8325 13.3755 16.4775 13.6335C16.497 13.641 16.5165 13.6485 16.5345 13.659C16.9815 13.884 17.3295 14.247 17.5875 14.592C17.8425 14.934 18.0495 15.306 18.207 15.6195C18.4095 15.96 19.0125 17.0355 19.6905 18.249L24.2205 13.719C24.3612 13.5784 24.5519 13.4994 24.7508 13.4994C24.9497 13.4994 25.1404 13.5784 25.281 13.719Z" fill="#ECECEC"/>
</svg>
