<svg width="67" height="62" viewBox="0 0 67 62" fill="none" xmlns="http://www.w3.org/2000/svg">
<path d="M31.2667 30.9824C31.2667 28.4944 30.3943 26.3702 28.6495 24.6099C26.9047 22.8495 24.7993 21.9693 22.3333 21.9693C19.8674 21.9693 17.762 22.8495 16.0172 24.6099C14.2724 26.3702 13.4 28.4944 13.4 30.9824C13.4 33.4704 14.2724 35.5946 16.0172 37.3549C17.762 39.1153 19.8674 39.9955 22.3333 39.9955C24.7993 39.9955 26.9047 39.1153 28.6495 37.3549C30.3943 35.5946 31.2667 33.4704 31.2667 30.9824ZM58.0667 49.0085C58.0667 47.788 57.6247 46.7318 56.7406 45.8399C55.8566 44.9479 54.8097 44.502 53.6 44.502C52.3903 44.502 51.3434 44.9479 50.4594 45.8399C49.5753 46.7318 49.1333 47.788 49.1333 49.0085C49.1333 50.2525 49.5695 51.3146 50.4419 52.1948C51.3143 53.075 52.367 53.515 53.6 53.515C54.833 53.515 55.8857 53.075 56.7581 52.1948C57.6305 51.3146 58.0667 50.2525 58.0667 49.0085ZM58.0667 12.9563C58.0667 11.7358 57.6247 10.6795 56.7406 9.78762C55.8566 8.8957 54.8097 8.44974 53.6 8.44974C52.3903 8.44974 51.3434 8.8957 50.4594 9.78762C49.5753 10.6795 49.1333 11.7358 49.1333 12.9563C49.1333 14.2003 49.5695 15.2624 50.4419 16.1425C51.3143 17.0227 52.367 17.4628 53.6 17.4628C54.833 17.4628 55.8857 17.0227 56.7581 16.1425C57.6305 15.2624 58.0667 14.2003 58.0667 12.9563ZM44.6667 27.7785V34.2919C44.6667 34.5266 44.5852 34.7554 44.4224 34.9784C44.2596 35.2014 44.0734 35.3246 43.8641 35.3481L38.4552 36.1931C38.1993 37.0146 37.8271 37.9065 37.3385 38.8688C38.1295 39.9955 39.1764 41.3451 40.4792 42.9177C40.642 43.1758 40.7234 43.4106 40.7234 43.6218C40.7234 43.9035 40.642 44.1264 40.4792 44.2907C39.9441 44.9949 38.9845 46.0452 37.6003 47.4418C36.2161 48.8384 35.303 49.5366 34.8609 49.5366C34.605 49.5366 34.3608 49.4545 34.1281 49.2902L30.1151 46.1215C29.2543 46.5675 28.3587 46.9313 27.4281 47.2129C27.1722 49.7479 26.9047 51.5669 26.6255 52.6701C26.4627 53.2334 26.1137 53.515 25.5786 53.515H19.088C18.8321 53.515 18.5995 53.427 18.3901 53.251C18.1807 53.075 18.0644 52.8696 18.0411 52.6349L17.2385 47.2482C16.4476 47.0134 15.5752 46.6496 14.6214 46.1567L10.5036 49.2902C10.3408 49.4545 10.1082 49.5366 9.80573 49.5366C9.54983 49.5366 9.30556 49.4427 9.07292 49.255C5.72292 46.1333 4.04792 44.2555 4.04792 43.6218C4.04792 43.4106 4.12934 43.1876 4.29219 42.9529C4.52483 42.6243 5.00174 42.0023 5.72292 41.0869C6.4441 40.1715 6.9908 39.4556 7.36302 38.9392C6.82795 37.9065 6.42083 36.9442 6.14167 36.0522L0.8375 35.2073C0.604861 35.1838 0.407118 35.0723 0.244271 34.8728C0.0814236 34.6733 0 34.4444 0 34.1863V27.6729C0 27.4382 0.0814236 27.2094 0.244271 26.9864C0.407118 26.7634 0.593229 26.6402 0.802604 26.6167L6.21146 25.7717C6.46736 24.9502 6.83958 24.0583 7.32813 23.096C6.53715 21.9693 5.49028 20.6197 4.1875 19.0471C4.02465 18.7889 3.94323 18.5542 3.94323 18.343C3.94323 18.0613 4.02465 17.8266 4.1875 17.6388C4.69931 16.9347 5.65313 15.8902 7.04896 14.5054C8.44479 13.1206 9.36372 12.4282 9.80573 12.4282C10.0616 12.4282 10.3059 12.5103 10.5385 12.6746L14.5516 15.8433C15.3425 15.4208 16.2382 15.0452 17.2385 14.7166C17.4944 12.1817 17.762 10.3744 18.0411 9.29472C18.204 8.7314 18.553 8.44974 19.088 8.44974H25.5786C25.8345 8.44974 26.0672 8.53776 26.2766 8.7138C26.4859 8.88984 26.6023 9.09521 26.6255 9.32993L27.4281 14.7166C28.2191 14.9514 29.0915 15.3152 30.0453 15.8081L34.163 12.6746C34.3491 12.5103 34.5818 12.4282 34.8609 12.4282C35.1168 12.4282 35.3611 12.5221 35.5938 12.7098C38.9438 15.8315 40.6188 17.7093 40.6188 18.343C40.6188 18.5308 40.5373 18.7537 40.3745 19.0119C40.0953 19.3875 39.6068 20.0212 38.9089 20.9131C38.2109 21.805 37.6875 22.5092 37.3385 23.0256C37.8736 24.1522 38.2691 25.1145 38.525 25.9125L43.8292 26.7223C44.0618 26.7693 44.2596 26.8925 44.4224 27.092C44.5852 27.2915 44.6667 27.5203 44.6667 27.7785ZM67 46.544V51.473C67 51.8486 65.2668 52.2124 61.8005 52.5645C61.5214 53.1982 61.1724 53.8084 60.7536 54.3952C61.9401 57.0475 62.5333 58.667 62.5333 59.2538C62.5333 59.3477 62.4868 59.4299 62.3938 59.5003C59.5556 61.1668 58.1132 62 58.0667 62C57.8806 62 57.3455 61.4484 56.4615 60.3453C55.5774 59.2421 54.9726 58.4441 54.6469 57.9512C54.1816 57.9981 53.8326 58.0216 53.6 58.0216C53.3674 58.0216 53.0184 57.9981 52.5531 57.9512C52.2274 58.4441 51.6226 59.2421 50.7385 60.3453C49.8545 61.4484 49.3194 62 49.1333 62C49.0868 62 47.6444 61.1668 44.8063 59.5003C44.7132 59.4299 44.6667 59.3477 44.6667 59.2538C44.6667 58.667 45.2599 57.0475 46.4464 54.3952C46.0276 53.8084 45.6786 53.1982 45.3995 52.5645C41.9332 52.2124 40.2 51.8486 40.2 51.473V46.544C40.2 46.1685 41.9332 45.8047 45.3995 45.4526C45.7019 44.7719 46.0509 44.1617 46.4464 43.6218C45.2599 40.9695 44.6667 39.35 44.6667 38.7632C44.6667 38.6693 44.7132 38.5872 44.8063 38.5168C44.8993 38.4698 45.3064 38.2351 46.0276 37.8126C46.7488 37.3901 47.4351 36.9911 48.0865 36.6156C48.7379 36.24 49.0868 36.0522 49.1333 36.0522C49.3194 36.0522 49.8545 36.598 50.7385 37.6894C51.6226 38.7808 52.2274 39.573 52.5531 40.0659C53.0184 40.0189 53.3674 39.9955 53.6 39.9955C53.8326 39.9955 54.1816 40.0189 54.6469 40.0659C55.8333 38.3994 56.9035 37.085 57.8573 36.1227L58.0667 36.0522C58.1597 36.0522 59.6021 36.8737 62.3938 38.5168C62.4868 38.5872 62.5333 38.6693 62.5333 38.7632C62.5333 39.35 61.9401 40.9695 60.7536 43.6218C61.1491 44.1617 61.4981 44.7719 61.8005 45.4526C65.2668 45.8047 67 46.1685 67 46.544ZM67 10.4918V15.4208C67 15.7963 65.2668 16.1601 61.8005 16.5122C61.5214 17.1459 61.1724 17.7562 60.7536 18.343C61.9401 20.9953 62.5333 22.6148 62.5333 23.2016C62.5333 23.2955 62.4868 23.3776 62.3938 23.448C59.5556 25.1145 58.1132 25.9478 58.0667 25.9478C57.8806 25.9478 57.3455 25.3962 56.4615 24.293C55.5774 23.1899 54.9726 22.3918 54.6469 21.8989C54.1816 21.9459 53.8326 21.9693 53.6 21.9693C53.3674 21.9693 53.0184 21.9459 52.5531 21.8989C52.2274 22.3918 51.6226 23.1899 50.7385 24.293C49.8545 25.3962 49.3194 25.9478 49.1333 25.9478C49.0868 25.9478 47.6444 25.1145 44.8063 23.448C44.7132 23.3776 44.6667 23.2955 44.6667 23.2016C44.6667 22.6148 45.2599 20.9953 46.4464 18.343C46.0276 17.7562 45.6786 17.1459 45.3995 16.5122C41.9332 16.1601 40.2 15.7963 40.2 15.4208V10.4918C40.2 10.1162 41.9332 9.75241 45.3995 9.40034C45.7019 8.71967 46.0509 8.10941 46.4464 7.56956C45.2599 4.91728 44.6667 3.29775 44.6667 2.71096C44.6667 2.61707 44.7132 2.53492 44.8063 2.46451C44.8993 2.41757 45.3064 2.18285 46.0276 1.76036C46.7488 1.33788 47.4351 0.938861 48.0865 0.563316C48.7379 0.187772 49.0868 0 49.1333 0C49.3194 0 49.8545 0.545713 50.7385 1.63714C51.6226 2.72856 52.2274 3.52073 52.5531 4.01363C53.0184 3.96669 53.3674 3.94321 53.6 3.94321C53.8326 3.94321 54.1816 3.96669 54.6469 4.01363C55.8333 2.34715 56.9035 1.03275 57.8573 0.0704145L58.0667 0C58.1597 0 59.6021 0.821503 62.3938 2.46451C62.4868 2.53492 62.5333 2.61707 62.5333 2.71096C62.5333 3.29775 61.9401 4.91728 60.7536 7.56956C61.1491 8.10941 61.4981 8.71967 61.8005 9.40034C65.2668 9.75241 67 10.1162 67 10.4918Z" fill="#0ADFAD"/>
</svg>
