<svg width="73" height="73" viewBox="0 0 73 73" fill="none" xmlns="http://www.w3.org/2000/svg">
<g clip-path="url(#clip0_144_1502)">
<path fill-rule="evenodd" clip-rule="evenodd" d="M60.6754 0C55.653 0 51.4059 3.45655 50.1787 8.09716L48.8275 7.46936C48.5865 7.3573 48.3239 7.29924 48.0581 7.29924C47.7923 7.29924 47.5297 7.3573 47.2887 7.46936L24.9412 17.8507L2.59369 7.47009C2.31562 7.34095 2.00949 7.28395 1.70358 7.30435C1.39766 7.32475 1.10182 7.42189 0.843354 7.5868C0.58489 7.75172 0.372138 7.97909 0.224741 8.24793C0.0773437 8.51676 5.14887e-05 8.81841 4.92206e-08 9.125V60.4345C-8.07475e-05 60.7825 0.0993123 61.1232 0.286464 61.4165C0.473616 61.7099 0.740726 61.9436 1.05631 62.0901L24.1725 72.8277C24.4135 72.9398 24.6761 72.9978 24.9419 72.9978C25.2077 72.9978 25.4703 72.9398 25.7113 72.8277L48.0588 62.4471L70.4063 72.8277C71.6159 73.3891 73 72.5065 73 71.1735V19.864C73.0001 19.5161 72.9007 19.1753 72.7135 18.882C72.5264 18.5887 72.2593 18.3549 71.9437 18.2084L69.5858 17.1119L70.3238 15.8549C70.4917 15.5505 70.6253 15.2263 70.7399 14.8949C71.2685 13.6065 71.5403 12.2273 71.54 10.8347C71.54 4.88005 66.6475 0 60.6754 0ZM60.6754 5.07569C63.8911 5.07569 66.4482 7.62777 66.4482 10.8347C66.4482 14.0408 63.8911 16.5907 60.6754 16.5907C57.4598 16.5907 54.9026 14.0408 54.9026 10.8347C54.9026 7.62777 57.4598 5.07569 60.6754 5.07569ZM48.8742 11.5157L49.8794 11.9837C50.0756 13.8078 50.7352 15.5513 51.7957 17.0484L59.3497 30.1081C60.4082 31.4907 61.1119 31.2279 61.9916 30.0351L67.7272 20.2728L69.35 21.0276V68.3134L49.1451 58.9278L48.9801 29.9643C49.2779 30.0285 49.575 30.0906 49.8736 30.1614L50.5452 27.321C50.0197 27.1967 49.4921 27.0816 48.9626 26.9757L48.8742 11.5157ZM46.6857 11.7742L46.7696 26.6194C46.0157 26.516 45.2574 26.4475 44.4972 26.4143L44.3891 29.3314C45.1833 29.3606 45.9842 29.4467 46.7872 29.5635L46.9551 58.9344L26.0216 68.6601L25.7522 21.4992L46.6857 11.7742ZM3.65 11.9851L23.5608 21.2342L23.8316 68.6455L3.65 59.2694V11.9851ZM41.2764 26.6136C40.2712 26.7939 39.2426 27.1158 38.2849 27.6728C37.1392 28.3362 36.197 29.3006 35.5605 30.4614L38.117 31.8718C38.4978 31.1783 39.0594 30.6009 39.7419 30.2008L39.7463 30.1979L39.7507 30.195C40.3398 29.8519 41.0413 29.6212 41.7925 29.4869L41.2764 26.6136ZM53.4426 28.0962L52.6155 30.8951C54.4427 31.4353 56.2523 32.0558 58.0518 32.7274L59.0731 29.9913C57.2247 29.3022 55.3501 28.6598 53.4426 28.0962ZM34.4611 33.6413L34.4392 33.7567L34.437 33.7669C34.0728 35.8335 34.1114 37.8673 34.1932 39.8003L37.1103 39.6762C37.0307 37.8009 37.0139 35.9861 37.3125 34.283L37.33 34.1917L34.4611 33.6413ZM37.284 42.5546L34.3713 42.7517C34.5027 44.7001 34.6429 46.6098 34.6378 48.4822L37.5578 48.4895C37.5636 46.4674 37.4154 44.4906 37.284 42.5546ZM34.4925 51.2343C34.4122 51.93 34.2925 52.6067 34.1173 53.2564L34.1158 53.2601L34.1144 53.2659C33.8589 54.2405 33.4289 55.1427 32.8288 55.8494L35.0531 57.7401C35.9934 56.6341 36.5898 55.3325 36.9365 54.0156L36.938 54.0112C37.157 53.1966 37.2994 52.376 37.3928 51.5657L34.4925 51.2343ZM9.84186 54.0799L8.53078 56.6889C10.3412 57.5992 12.2136 58.3518 14.0992 59.003L15.0519 56.2428C13.2597 55.6245 11.5099 54.9179 9.84186 54.0799ZM17.7521 57.0823L16.9754 59.8972C18.907 60.4309 20.8926 60.855 22.922 61.0835L23.2476 58.1817C21.4073 57.9751 19.572 57.5853 17.7521 57.0823ZM30.9951 57.2882C29.5409 58.0328 27.7853 58.308 25.98 58.3299L26.0165 61.2499C28.0853 61.2251 30.2972 60.9258 32.3251 59.887L30.9951 57.2882Z" fill="#2753AB"/>
</g>
<defs>
<clipPath id="clip0_144_1502">
<rect width="73" height="73" fill="white"/>
</clipPath>
</defs>
</svg>
