<svg width="15" height="15" viewBox="0 0 15 15" fill="none" xmlns="http://www.w3.org/2000/svg">
<g id="jam:crown-f">
<path id="Vector" d="M2.53065 3.62623L4.90877 5.71873L7.02752 3.10998C7.08685 3.03705 7.16187 2.97845 7.24699 2.93853C7.33211 2.89861 7.42514 2.87841 7.51915 2.87943C7.61316 2.88045 7.70572 2.90267 7.78996 2.94443C7.87419 2.98618 7.94792 3.04641 8.00565 3.12061L10.0275 5.71811L12.4825 3.59561C12.5789 3.51243 12.6984 3.46068 12.8251 3.44729C12.9517 3.43389 13.0794 3.4595 13.1911 3.52067C13.3027 3.58184 13.3931 3.67567 13.45 3.78959C13.5069 3.90351 13.5276 4.03208 13.5094 4.15811L12.5719 10.625H2.45127L1.4994 4.18748C1.48049 4.06076 1.50099 3.93128 1.55812 3.81659C1.61524 3.7019 1.70624 3.60754 1.81878 3.54629C1.93133 3.48504 2.05998 3.45986 2.18731 3.47416C2.31464 3.48846 2.43449 3.54155 2.53065 3.62623ZM2.50002 11.25H12.5V11.875C12.5 12.0407 12.4342 12.1997 12.317 12.3169C12.1998 12.4341 12.0408 12.5 11.875 12.5H3.12502C2.95926 12.5 2.80029 12.4341 2.68308 12.3169C2.56587 12.1997 2.50002 12.0407 2.50002 11.875V11.25Z" fill="#FFD233"/>
</g>
</svg>
