<?xml version="1.0" encoding="UTF-8"?>
<svg version="1.1" xmlns="http://www.w3.org/2000/svg" width="32" height="32">
<path d="M0 0 C4.8846525 2.26787438 7.73212562 5.1153475 10 10 C11.01315621 16.20121474 11.0034336 21.40448829 7.25 26.625 C4.31985965 30.1322892 1.76966871 31.78803411 -2.8046875 32.3359375 C-13.29536144 32.46940663 -13.29536144 32.46940663 -18 28 C-21.62833663 24.18069828 -22.31000458 21.11720994 -22.5 16 C-22.25156236 9.3087462 -20.3143755 6.19865673 -15.5 1.625 C-10.33499991 -0.77303575 -5.5997712 -0.75381535 0 0 Z " fill="#605850" transform="translate(22,0)"/>
<path d="M0 0 C4.63968818 2.2901025 7.41278084 5.43302613 9.078125 10.33984375 C9.72183236 14.25329188 9.67157508 17.35076028 7.578125 20.83984375 C7.083125 21.33484375 6.588125 21.82984375 6.078125 22.33984375 C5.48 21.57671875 4.881875 20.81359375 4.265625 20.02734375 C2.27552601 17.40395379 2.27552601 17.40395379 0.265625 15.83984375 C-0.12625 15.34484375 -0.518125 14.84984375 -0.921875 14.33984375 C-0.609375 11.65234375 -0.609375 11.65234375 0.078125 9.33984375 C-0.23125 10.14421875 -0.540625 10.94859375 -0.859375 11.77734375 C-1.921875 14.33984375 -1.921875 14.33984375 -2.921875 15.33984375 C-5.859375 15.52734375 -5.859375 15.52734375 -8.921875 15.33984375 C-10.921875 13.33984375 -10.921875 13.33984375 -11.046875 9.71484375 C-11.005625 8.60109375 -10.964375 7.48734375 -10.921875 6.33984375 C-11.251875 6.66984375 -11.581875 6.99984375 -11.921875 7.33984375 C-11.674375 8.57734375 -11.426875 9.81484375 -11.171875 11.08984375 C-10.859375 13.26953125 -10.859375 13.26953125 -10.921875 15.33984375 C-13.33632667 18.42497644 -15.67379323 20.1744559 -18.921875 22.33984375 C-21.41374052 18.60204546 -21.56152161 14.67162772 -20.921875 10.33984375 C-19.51718464 6.1762406 -17.35460381 3.30412341 -13.671875 0.90234375 C-9.1053782 -1.35163223 -4.82453785 -1.65720914 0 0 Z " fill="#E7E3DF" transform="translate(21.921875,1.66015625)"/>
<path d="M0 0 C3.16025526 1.80586015 4.57721965 2.82922364 5.8125 6.25 C5.874375 6.8275 5.93625 7.405 6 8 C0.93881978 12.24044829 -2.32211945 13.56592208 -9 13 C-14.68421053 9.94736842 -14.68421053 9.94736842 -16 6 C-11.5458194 -0.45088224 -7.52484593 -0.86370087 0 0 Z " fill="#C3C0BA" transform="translate(21,18)"/>
<path d="M0 0 C3.0625 0.125 3.0625 0.125 5.0625 1.125 C5.94563532 4.72547475 6.50590212 7.10778337 5 10.5625 C3.0625 12.125 3.0625 12.125 0 12.5 C-2.9375 12.125 -2.9375 12.125 -4.9375 10.125 C-4.94921875 7.99609375 -4.94921875 7.99609375 -4.625 5.5625 C-4.52574219 4.75683594 -4.42648437 3.95117188 -4.32421875 3.12109375 C-3.70602882 -0.06976536 -3.36745799 0.14329608 0 0 Z " fill="#B9B6B0" transform="translate(15.9375,4.875)"/>
<path d="M0 0 C0.99 0.99 1.98 1.98 3 3 C3.66 2.67 4.32 2.34 5 2 C5.33 3.98 5.66 5.96 6 8 C4.125 7.6875 4.125 7.6875 2 7 C0 4 0 4 0 0 Z " fill="#5E554E" transform="translate(1,20)"/>
</svg>
